<svg xmlns="http://www.w3.org/2000/svg" width="551" height="226" fill="none" viewBox="0 0 551 226">
  <path fill="#FFD600" d="M48.858 22.698c1.454-4.29 8.42-4.537 10.17-.36l6.256 14.932c.382.909 1.09 1.688 2.022 2.225a5.958 5.958 0 0 0 3.17.767l18.51-.655c5.18-.183 7.531 5.441 3.438 8.21l-14.64 9.88c-.894.602-1.547 1.43-1.863 2.366a3.99 3.99 0 0 0 .098 2.842l6.257 14.931c1.754 4.178-3.763 7.903-8.052 5.431l-15.302-8.82a5.957 5.957 0 0 0-3.172-.766 5.958 5.958 0 0 0-3.11.988L38 84.549c-4.099 2.769-9.86-.558-8.41-4.848l5.185-15.336a3.99 3.99 0 0 0-.102-2.842c-.382-.911-1.092-1.691-2.026-2.23l-15.296-8.816c-4.279-2.472-2.326-8.249 2.85-8.432l18.505-.654a5.959 5.959 0 0 0 3.11-.988c.893-.602 1.545-1.43 1.862-2.364l5.185-15.337-.005-.004Zm117.82-7.171c1.454-4.29 8.421-4.537 10.17-.36l6.256 14.932c.382.91 1.09 1.688 2.022 2.226a5.96 5.96 0 0 0 3.169.766l18.511-.655c5.18-.183 7.531 5.441 3.438 8.21l-14.64 9.88c-.894.603-1.546 1.431-1.863 2.367a3.984 3.984 0 0 0 .099 2.841l6.256 14.932c1.754 4.177-3.762 7.903-8.052 5.43l-15.301-8.82a5.962 5.962 0 0 0-3.173-.766 5.958 5.958 0 0 0-3.11.988l-14.64 9.88c-4.099 2.77-9.859-.558-8.41-4.848l5.186-15.336a3.99 3.99 0 0 0-.103-2.842c-.382-.91-1.091-1.691-2.025-2.229l-15.296-8.816c-4.28-2.473-2.327-8.25 2.849-8.432l18.505-.655a5.958 5.958 0 0 0 3.11-.987c.893-.603 1.545-1.43 1.862-2.365l5.186-15.336-.006-.005ZM302.247 28.14c2.717-3.624 9.415-1.69 9.776 2.824l1.299 16.137c.08.983.51 1.944 1.229 2.744a5.957 5.957 0 0 0 2.773 1.715l17.795 5.139c4.98 1.438 5.464 7.515.712 8.872l-16.988 4.833c-1.037.294-1.914.879-2.507 1.67a3.989 3.989 0 0 0-.79 2.73l1.298 16.137c.367 4.516-6.035 6.34-9.342 2.656l-11.796-13.145a5.962 5.962 0 0 0-2.777-1.716 5.958 5.958 0 0 0-3.263-.029l-16.988 4.834c-4.757 1.355-9.195-3.6-6.483-7.226l9.701-12.96a3.99 3.99 0 0 0 .787-2.733c-.08-.984-.511-1.947-1.231-2.748l-11.793-13.14c-3.297-3.68.357-8.563 5.333-7.126l17.789 5.137a5.958 5.958 0 0 0 3.263.03c1.036-.294 1.913-.878 2.506-1.668l9.701-12.96-.004-.006Z"/>
  <g clip-path="url(#a)">
    <path fill="#FFD600" d="M420.238 125.314c5.04-1.264 8.895 4.768 5.627 8.806l-11.677 14.436a5.366 5.366 0 0 0-1.176 3.119 5.593 5.593 0 0 0 .876 3.267l10.241 16.028c2.866 4.486-1.535 9.919-6.421 7.936l-17.453-7.103a5.353 5.353 0 0 0-3.329-.244 5.22 5.22 0 0 0-2.788 1.779l-11.676 14.437c-3.265 4.042-9.844 1.367-9.596-3.909l.887-18.822a5.59 5.59 0 0 0-.878-3.27 5.592 5.592 0 0 0-2.598-2.17l-17.452-7.104c-4.889-1.987-4.549-9.076.487-10.345l18.007-4.53a5.217 5.217 0 0 0 2.786-1.782 5.364 5.364 0 0 0 1.178-3.123l.886-18.815c.253-5.267 7.036-6.973 9.899-2.492l10.238 16.023a5.596 5.596 0 0 0 2.597 2.171 5.361 5.361 0 0 0 3.327.244l18.007-4.529.001-.008Z"/>
  </g>
  <path fill="#FFD600" d="M489.325 28.127c1.454-4.29 8.421-4.537 10.169-.36l6.257 14.932c.382.909 1.09 1.688 2.022 2.225a5.96 5.96 0 0 0 3.169.767l18.511-.655c5.18-.183 7.531 5.441 3.438 8.21l-14.64 9.88c-.894.602-1.546 1.43-1.863 2.366a3.984 3.984 0 0 0 .099 2.842l6.256 14.931c1.754 4.178-3.762 7.903-8.052 5.431l-15.301-8.82a5.962 5.962 0 0 0-3.173-.766 5.958 5.958 0 0 0-3.11.988l-14.64 9.88c-4.099 2.769-9.859-.558-8.41-4.848l5.186-15.337a3.995 3.995 0 0 0-.103-2.841c-.382-.911-1.091-1.692-2.026-2.23l-15.295-8.816c-4.28-2.472-2.327-8.249 2.849-8.432l18.505-.654a5.958 5.958 0 0 0 3.11-.988c.893-.602 1.545-1.43 1.862-2.364l5.186-15.337-.006-.004Z"/>
  <path stroke="#000" stroke-linecap="round" stroke-width="8" d="M90.22 30.948c-.638 1.842-1.153 3.348-2.548 4.79-1.661 1.718-3.61 3.135-5.55 4.512-6.017 4.267-12.25 8.28-18.538 12.131-15.234 9.33-31.503 16.856-47.427 24.905-1.653.835-4.564 3.18-3.274.355m197.126-61.177c-2.265 2.516-4.011 5.423-6.293 7.935-7.165 7.887-15.495 14.809-24.309 20.763-10.423 7.041-21.378 13.252-32.72 18.674-4.161 1.99-8.362 3.831-12.108 6.524m143.547-32.738c1.586 1.979 2.93 4.099 4.4 6.173C294.001 60 305.884 75.91 317.649 91.903c1.368 1.86 2.699 4.053 4.134 5.926.58.758 1.032-.463 1.325-.84"/>
  <path stroke="#000" stroke-linecap="round" stroke-width="8" d="M248.177 94.174c1.219-.043 1.945-.084 2.908-.967 6.413-5.879 13.056-11.272 20.31-16.11 6.185-4.125 12.374-8.257 18.574-12.358 9.874-6.53 20.105-11.709 30.974-16.37 10-4.29 20.158-8.925 30.72-11.668m110.994 2.915c4.163 4.823 8.183 9.37 13.052 13.535 15.551 13.3 32.233 25.29 48.368 37.85"/>
  <path stroke="#000" stroke-linecap="round" stroke-width="8" d="M463.734 87.718c.036-1.794 1.438-3.883 2.348-5.282 6.85-10.524 16.895-19.401 26.885-26.804 10.598-7.853 21.977-14.64 32.973-21.913 2.512-1.662 5.072-3.264 7.509-5.036.349-.253.92-.696 1.1-.988m-507.357 5.94C39.166 51.57 51.772 69.088 64.055 86.81c2.232 3.221 6.528 8.773 8.741 12.834.168.308.193.497.282.809m79.214-82.476c2.557 4.023 4.485 8.404 7.03 12.425 7.658 12.098 16.862 23.21 24.722 35.18 5.63 8.574 10.643 17.569 16.023 26.303.15.243 3.015 4.564 1.614 2.614"/>
  <rect width="16.35" height="43.698" x="397.064" y="72.655" fill="#FFD600" rx="8.175" transform="rotate(-132.248 397.064 72.655)"/>
  <rect width="16.35" height="43.698" x="397.064" y="72.655" fill="#FFD600" rx="8.175" transform="rotate(-132.248 397.064 72.655)"/>
  <rect width="37.358" height="9.136" x="384.64" y="90.516" fill="#FFD600" rx="4.568" transform="rotate(-41.349 384.64 90.516)"/>
  <rect width="37.272" height="9.136" x="376.216" y="82.611" fill="#FFD600" rx="4.568" transform="rotate(-41.349 376.216 82.611)"/>
  <rect width="36.477" height="9.136" x="369.188" y="74.69" fill="#FFD600" rx="4.568" transform="rotate(-41.349 369.188 74.69)"/>
  <rect width="36.477" height="9.136" x="362.188" y="66.44" fill="#FFD600" rx="4.568" transform="rotate(-41.349 362.188 66.44)"/>
  <rect width="17.016" height="47.645" x="376.961" y="49.991" fill="#000" rx="8.508" transform="rotate(-41.349 376.961 49.991)"/>
  <defs>
    <clipPath id="a">
      <path fill="#fff" d="M0 0h109.879v107.002H0z" transform="rotate(57.423 134.88 408.715)"/>
    </clipPath>
  </defs>
</svg>
